<svg width="19" height="19" viewBox="0 0 19 19" fill="none" xmlns="http://www.w3.org/2000/svg">
<g id="Icon" clip-path="url(#clip0_9_5732)">
<path id="Vector" d="M18.1094 17.4033C18.3203 17.5908 18.3203 17.79 18.1094 18.001L17.3359 18.7744C17.125 18.9854 16.9258 18.9854 16.7383 18.7744L12.4844 14.5205C12.3906 14.4268 12.3438 14.333 12.3438 14.2393V13.7471C10.9609 14.9424 9.36719 15.54 7.5625 15.54C5.54688 15.54 3.82422 14.8252 2.39453 13.3955C0.964844 11.9658 0.25 10.2432 0.25 8.22754C0.25 6.21191 0.964844 4.48926 2.39453 3.05957C3.82422 1.62988 5.54688 0.915039 7.5625 0.915039C9.57812 0.915039 11.3008 1.62988 12.7305 3.05957C14.1602 4.48926 14.875 6.21191 14.875 8.22754C14.875 10.0322 14.2773 11.626 13.082 13.0088H13.5742C13.6914 13.0088 13.7852 13.0557 13.8555 13.1494L18.1094 17.4033ZM3.58984 12.2002C3.58984 12.2002 3.86523 12.4756 4.41602 13.0264C4.9668 13.5771 6.01562 13.8525 7.5625 13.8525C9.10938 13.8525 10.4336 13.3018 11.5352 12.2002C12.6367 11.0986 13.1875 9.77441 13.1875 8.22754C13.1875 6.68066 12.6367 5.35645 11.5352 4.25488C10.4336 3.15332 9.10938 2.60254 7.5625 2.60254C6.01562 2.60254 4.69141 3.15332 3.58984 4.25488C2.48828 5.35645 1.9375 6.68066 1.9375 8.22754C1.9375 9.77441 2.48828 11.0986 3.58984 12.2002Z" fill="black"/>
</g>
<defs>
<clipPath id="clip0_9_5732">
<rect width="18" height="18" fill="white" transform="matrix(1 0 0 -1 0.25 18.915)"/>
</clipPath>
</defs>
</svg>
