<svg width="19" height="16" viewBox="0 0 19 16" fill="none" xmlns="http://www.w3.org/2000/svg">
<path id="Email" d="M17.1 0.400391H1.9C0.855 0.400391 0.00949999 1.25539 0.00949999 2.30039L0 13.7004C0 14.7454 0.855 15.6004 1.9 15.6004H17.1C18.145 15.6004 19 14.7454 19 13.7004V2.30039C19 1.25539 18.145 0.400391 17.1 0.400391ZM16.72 4.43789L10.0035 8.63689C9.6995 8.82689 9.3005 8.82689 8.9965 8.63689L2.28 4.43789C2.18474 4.38442 2.10132 4.31217 2.03479 4.22552C1.96827 4.13887 1.92001 4.03963 1.89295 3.93379C1.86588 3.82796 1.86058 3.71773 1.87735 3.60978C1.89412 3.50184 1.93262 3.39841 1.99052 3.30578C2.04842 3.21314 2.12451 3.13321 2.21419 3.07084C2.30387 3.00846 2.40528 2.96493 2.51227 2.94287C2.61926 2.92082 2.72962 2.92071 2.83666 2.94254C2.9437 2.96437 3.04519 3.0077 3.135 3.06989L9.5 7.05039L15.865 3.06989C15.9548 3.0077 16.0563 2.96437 16.1633 2.94254C16.2704 2.92071 16.3807 2.92082 16.4877 2.94287C16.5947 2.96493 16.6961 3.00846 16.7858 3.07084C16.8755 3.13321 16.9516 3.21314 17.0095 3.30578C17.0674 3.39841 17.1059 3.50184 17.1227 3.60978C17.1394 3.71773 17.1341 3.82796 17.1071 3.93379C17.08 4.03963 17.0317 4.13887 16.9652 4.22552C16.8987 4.31217 16.8153 4.38442 16.72 4.43789Z" fill="url(#paint0_linear_52_815)"/>
<defs>
<linearGradient id="paint0_linear_52_815" x1="9.5" y1="0.400391" x2="9.5" y2="15.6004" gradientUnits="userSpaceOnUse">
<stop stop-color="#7255E7"/>
<stop offset="1" stop-color="#E050C2"/>
</linearGradient>
</defs>
</svg>
