<svg width="18" height="18" viewBox="0 0 18 18" fill="none" xmlns="http://www.w3.org/2000/svg">
<path id="Phone" d="M16.2364 12.2747L13.6912 11.9841C13.392 11.949 13.0886 11.9821 12.804 12.081C12.5194 12.18 12.2609 12.3421 12.0479 12.5553L10.2042 14.399C7.35968 12.9523 5.04761 10.6402 3.60092 7.79569L5.45465 5.94196C5.88552 5.51109 6.09594 4.90988 6.0258 4.29865L5.73522 1.77357C5.67841 1.28476 5.44382 0.833916 5.07613 0.506869C4.70843 0.179822 4.2333 -0.00058343 3.7412 1.41754e-06H2.00771C0.875436 1.41754e-06 -0.0664603 0.941897 0.00368089 2.07418C0.53475 10.6314 7.37853 17.4652 15.9257 17.9962C17.058 18.0664 17.9999 17.1245 17.9999 15.9922V14.2587C18.0099 13.2467 17.2484 12.395 16.2364 12.2747Z" fill="url(#paint0_linear_52_810)"/>
<defs>
<linearGradient id="paint0_linear_52_810" x1="9" y1="0" x2="9" y2="17.9999" gradientUnits="userSpaceOnUse">
<stop stop-color="#7255E7"/>
<stop offset="1" stop-color="#E050C2"/>
</linearGradient>
</defs>
</svg>
