<svg width="48" height="51" viewBox="0 0 48 51" fill="none" xmlns="http://www.w3.org/2000/svg">
<path id="Icon" d="M11.5 5.79332C10.6111 5.79332 9.88889 6.09888 9.33333 6.70999C8.77778 7.3211 8.5 8.04332 8.5 8.87666C8.5 9.70999 8.77778 10.4322 9.33333 11.0433C9.88889 11.6544 10.6111 11.96 11.5 11.96C12.3889 11.96 13.1389 11.6544 13.75 11.0433C14.3611 10.4322 14.6667 9.70999 14.6667 8.87666C14.6667 8.04332 14.3611 7.3211 13.75 6.70999C13.1389 6.09888 12.3889 5.79332 11.5 5.79332ZM11.5 10.46C11.0556 10.46 10.6667 10.3211 10.3333 10.0433C10 9.76554 9.83333 9.40443 9.83333 8.95999C9.83333 8.51554 10 8.12666 10.3333 7.79332C10.6667 7.45999 11.0556 7.29332 11.5 7.29332C11.9444 7.29332 12.3333 7.45999 12.6667 7.79332C13 8.12666 13.1667 8.51554 13.1667 8.95999C13.1667 9.40443 13 9.76554 12.6667 10.0433C12.3333 10.3211 11.9444 10.46 11.5 10.46ZM14.6667 22.7933V19.96C14.6667 19.7378 14.5833 19.5433 14.4167 19.3767C14.25 19.21 14.0556 19.1267 13.8333 19.1267H6.5C6.27778 19.1267 6.08333 19.21 5.91667 19.3767C5.75 19.5433 5.66667 19.7378 5.66667 19.96V22.7933C5.66667 23.0155 5.75 23.1822 5.91667 23.2933C6.08333 23.4044 6.27778 23.46 6.5 23.46H13.8333C14.0556 23.46 14.25 23.4044 14.4167 23.2933C14.5833 23.1822 14.6667 23.0155 14.6667 22.7933ZM13.1667 21.96H7.16667V20.6267H13.1667V21.96ZM45.5 6.95999H40.8333C39.9444 6.95999 39.3333 7.34888 39 8.12666H19.5V7.62666C19.5 7.29332 19.2778 7.0711 18.8333 6.95999L17 6.62666L18 5.12666C18.2222 4.79332 18.2222 4.45999 18 4.12666L16.3333 2.45999C16 2.12666 15.6667 2.0711 15.3333 2.29332L13.8333 3.29332L13.5 1.45999C13.3889 1.12666 13.1111 0.959991 12.6667 0.959991H10.3333C9.88889 0.959991 9.66667 1.12666 9.66667 1.45999L9.16667 3.29332L7.66667 2.29332C7.33333 2.0711 7.05556 2.12666 6.83333 2.45999L5 4.12666C4.77778 4.45999 4.77778 4.79332 5 5.12666L6 6.62666L4.16667 6.95999C3.83333 7.0711 3.66667 7.29332 3.66667 7.62666L3.5 8.12666C2.61111 8.12666 1.80556 8.48777 1.08333 9.20999C0.361111 9.93221 0 10.7378 0 11.6267V34.46C0 35.46 0.361111 36.2933 1.08333 36.96C1.80556 37.6267 2.61111 37.96 3.5 37.96H6.33333C6.55556 39.2933 7.16667 40.3767 8.16667 41.21C9.16667 42.0433 10.2778 42.46 11.5 42.46C12.2778 42.46 13 42.2933 13.6667 41.96L12 48.46C11.7778 49.3489 11.9722 50.0155 12.5833 50.46C13.1944 50.9044 13.8889 51.0433 14.6667 50.8767C15.4444 50.71 15.8889 50.2378 16 49.46L19 37.96H21.3333V48.96C21.3333 49.5155 21.5278 49.9878 21.9167 50.3767C22.3056 50.7655 22.7778 50.96 23.3333 50.96C23.8889 50.96 24.3611 50.7655 24.75 50.3767C25.1389 49.9878 25.3333 49.5155 25.3333 48.96V37.96H27.6667L30.6667 49.46C30.8889 50.2378 31.3611 50.71 32.0833 50.8767C32.8056 51.0433 33.4722 50.9044 34.0833 50.46C34.6944 50.0155 34.8889 49.3489 34.6667 48.46L32 37.96H43.1667C44.1667 37.96 45 37.6267 45.6667 36.96C46.3333 36.2933 46.6667 35.46 46.6667 34.46V18.6267C46.6667 18.4044 46.5833 18.2378 46.4167 18.1267C46.25 18.0155 46.0833 17.96 45.9167 17.96C45.75 17.96 45.5833 18.0155 45.4167 18.1267C45.25 18.2378 45.1667 18.4044 45.1667 18.6267V34.46C45.1667 35.0155 44.9722 35.4878 44.5833 35.8767C44.1944 36.2655 43.7222 36.46 43.1667 36.46H16.6667C16.5556 35.2378 16 34.1822 15 33.2933C14 32.4044 12.8611 31.96 11.5833 31.96C10.3056 31.96 9.16667 32.4044 8.16667 33.2933C7.16667 34.1822 6.55556 35.2378 6.33333 36.46H3.5C2.94444 36.46 2.47222 36.2655 2.08333 35.8767C1.69444 35.4878 1.5 35.0155 1.5 34.46V13.1267H4.83333C4.83333 13.3489 4.88889 13.5155 5 13.6267L6.83333 15.2933C7.05556 15.6267 7.33333 15.6822 7.66667 15.46L9.16667 14.46L9.66667 16.2933C9.66667 16.6267 9.88889 16.7933 10.3333 16.7933H12.6667C13.1111 16.7933 13.3889 16.6267 13.5 16.2933L13.8333 14.46L15.3333 15.46C15.6667 15.6822 16 15.6267 16.3333 15.2933L18 13.6267C18.1111 13.5155 18.1667 13.3489 18.1667 13.1267H38.5L31.6667 19.96L28.1667 16.46C27.8333 16.2378 27.4722 16.1267 27.0833 16.1267C26.6944 16.1267 26.3889 16.2378 26.1667 16.46L23.8333 18.7933C23.7222 18.9044 23.6667 19.0711 23.6667 19.2933C23.6667 19.5155 23.7222 19.6822 23.8333 19.7933C23.9444 19.9044 24.1111 19.96 24.3333 19.96C24.5556 19.96 24.7222 19.9044 24.8333 19.7933L27.1667 17.6267L30.6667 21.1267C30.8889 21.3489 31.1944 21.46 31.5833 21.46C31.9722 21.46 32.3333 21.3489 32.6667 21.1267L42.5 11.1267C42.7222 10.9044 42.7778 10.6267 42.6667 10.2933C42.5556 9.95999 42.3333 9.79332 42 9.79332H40.8333C40.6111 9.79332 40.4444 9.68221 40.3333 9.45999C40.2222 9.23777 40.2222 9.01554 40.3333 8.79332C40.4444 8.5711 40.6111 8.45999 40.8333 8.45999H45.5C45.7222 8.45999 45.8889 8.54332 46 8.70999C46.1111 8.87666 46.1667 9.01554 46.1667 9.12666V13.7933C46.1667 14.0155 46.0833 14.1822 45.9167 14.2933C45.75 14.4044 45.5833 14.46 45.4167 14.46C45.25 14.46 45.1111 14.4044 45 14.2933C44.8889 14.1822 44.8333 14.0155 44.8333 13.7933V12.6267C44.8333 12.2933 44.6667 12.0711 44.3333 11.96C44 11.8489 43.7222 11.9044 43.5 12.1267L31.6667 23.96L28.1667 20.46C27.8333 20.2378 27.4722 20.1267 27.0833 20.1267C26.6944 20.1267 26.3889 20.2378 26.1667 20.46L20.1667 26.46C19.9444 26.6822 19.6944 26.7655 19.4167 26.71C19.1389 26.6544 18.9722 26.4878 18.9167 26.21C18.8611 25.9322 18.9444 25.7378 19.1667 25.6267L22.3333 22.2933C22.5556 22.1822 22.6667 22.0155 22.6667 21.7933C22.6667 21.5711 22.5833 21.3767 22.4167 21.21C22.25 21.0433 22.0833 20.96 21.9167 20.96C21.75 20.96 21.5556 21.0711 21.3333 21.2933L18.1667 24.46C17.7222 24.9044 17.5 25.4322 17.5 26.0433C17.5 26.6544 17.7222 27.1544 18.1667 27.5433C18.6111 27.9322 19.1111 28.1267 19.6667 28.1267C20.2222 28.1267 20.7222 27.96 21.1667 27.6267L27.1667 21.6267L30.6667 25.1267C30.8889 25.3489 31.1944 25.46 31.5833 25.46C31.9722 25.46 32.3333 25.3489 32.6667 25.1267L43.3333 14.2933C43.4444 14.7378 43.6944 15.1267 44.0833 15.46C44.4722 15.7933 44.9444 15.96 45.5 15.96C46.0556 15.96 46.5556 15.7378 47 15.2933C47.4444 14.8489 47.6667 14.3489 47.6667 13.7933V9.12666C47.6667 8.5711 47.4444 8.0711 47 7.62666C46.5556 7.18221 46.0556 6.95999 45.5 6.95999ZM14.6667 49.1267C14.5556 49.46 14.3056 49.5989 13.9167 49.5433C13.5278 49.4878 13.3333 49.2378 13.3333 48.7933L15.5 40.6267C16.1667 39.8489 16.5556 38.96 16.6667 37.96H17.5L14.6667 49.1267ZM23.8333 48.96C23.8333 49.2933 23.6667 49.46 23.3333 49.46C23 49.46 22.8333 49.2933 22.8333 48.96V37.96H23.8333V48.96ZM33.3333 48.7933C33.4444 49.2378 33.2778 49.4878 32.8333 49.5433C32.3889 49.5989 32.1111 49.46 32 49.1267L29.1667 37.96H30.5L33.3333 48.7933ZM10.6667 33.6267C11 33.5155 11.2778 33.46 11.5 33.46C12.5 33.46 13.3889 33.8211 14.1667 34.5433C14.9444 35.2655 15.3333 36.1822 15.3333 37.2933C15.3333 38.2933 14.9444 39.1544 14.1667 39.8767C13.3889 40.5989 12.5 40.96 11.5 40.96C10.5 40.96 9.63889 40.5989 8.91667 39.8767C8.19444 39.1544 7.83333 38.3211 7.83333 37.3767C7.83333 36.4322 8.08333 35.6267 8.58333 34.96C9.08333 34.2933 9.77778 33.8489 10.6667 33.6267ZM1.5 11.6267C1.5 11.0711 1.69444 10.5989 2.08333 10.21C2.47222 9.8211 2.94444 9.62666 3.5 9.62666L3.66667 10.1267C3.66667 10.46 3.83333 10.6822 4.16667 10.7933L6 11.1267L5.66667 11.7933H1.5V11.6267ZM15.6667 13.96L14.3333 12.96C14.1111 12.8489 13.75 12.8767 13.25 13.0433C12.75 13.21 12.5 13.46 12.5 13.7933L12.1667 15.2933H10.8333L10.5 13.7933C10.5 13.46 10.2778 13.21 9.83333 13.0433C9.38889 12.8767 9 12.8489 8.66667 12.96L7.33333 13.96L6.5 12.96L7.33333 11.6267C7.55556 11.4044 7.58333 11.0711 7.41667 10.6267C7.25 10.1822 7 9.90443 6.66667 9.79332L5 9.45999V8.29332L6.66667 7.95999C7 7.84888 7.25 7.5711 7.41667 7.12666C7.58333 6.68221 7.55556 6.34888 7.33333 6.12666L6.5 4.79332L7.33333 3.95999L8.66667 4.79332C9 4.90443 9.38889 4.87666 9.83333 4.70999C10.2778 4.54332 10.5 4.29332 10.5 3.95999L10.8333 2.45999H12.1667L12.5 3.95999C12.5 4.29332 12.75 4.54332 13.25 4.70999C13.75 4.87666 14.1111 4.90443 14.3333 4.79332L15.6667 3.95999L16.5 4.79332L15.6667 6.12666C15.4444 6.34888 15.4444 6.68221 15.6667 7.12666C15.8889 7.5711 16.1111 7.84888 16.3333 7.95999L18 8.29332V9.45999L16.3333 9.79332C16.1111 9.90443 15.8889 10.1822 15.6667 10.6267C15.4444 11.0711 15.4444 11.4044 15.6667 11.6267L16.5 12.96L15.6667 13.96ZM40.3333 11.2933L39.8333 11.7933H17.3333L17 11.1267L18.8333 10.7933C19.2778 10.6822 19.5 10.46 19.5 10.1267V9.62666H38.6667C38.7778 10.0711 38.9722 10.4322 39.25 10.71C39.5278 10.9878 39.8889 11.1822 40.3333 11.2933ZM41.5 31.6267H27.6667C27.4444 31.6267 27.25 31.71 27.0833 31.8767C26.9167 32.0433 26.8333 32.21 26.8333 32.3767C26.8333 32.5433 26.9167 32.71 27.0833 32.8767C27.25 33.0433 27.4444 33.1267 27.6667 33.1267H41.5C41.7222 33.1267 41.8889 33.0433 42 32.8767C42.1111 32.71 42.1667 32.5433 42.1667 32.3767C42.1667 32.21 42.1111 32.0433 42 31.8767C41.8889 31.71 41.7222 31.6267 41.5 31.6267ZM41.5 28.46H33.3333C33.1111 28.46 32.9167 28.5155 32.75 28.6267C32.5833 28.7378 32.5 28.9044 32.5 29.1267C32.5 29.3489 32.5833 29.5433 32.75 29.71C32.9167 29.8767 33.1111 29.96 33.3333 29.96H41.5C41.7222 29.96 41.8889 29.8767 42 29.71C42.1111 29.5433 42.1667 29.3489 42.1667 29.1267C42.1667 28.9044 42.1111 28.7378 42 28.6267C41.8889 28.5155 41.7222 28.46 41.5 28.46ZM6.5 24.7933C6.27778 24.7933 6.08333 24.8767 5.91667 25.0433C5.75 25.21 5.66667 25.3767 5.66667 25.5433C5.66667 25.71 5.75 25.8767 5.91667 26.0433C6.08333 26.21 6.27778 26.2933 6.5 26.2933H11.5C11.7222 26.2933 11.9167 26.21 12.0833 26.0433C12.25 25.8767 12.3333 25.71 12.3333 25.5433C12.3333 25.3767 12.25 25.21 12.0833 25.0433C11.9167 24.8767 11.7222 24.7933 11.5 24.7933H6.5ZM11.5 38.96C11.7222 38.96 11.9167 38.9044 12.0833 38.7933C12.25 38.6822 12.3333 38.5155 12.3333 38.2933V36.2933C12.3333 36.0711 12.25 35.8767 12.0833 35.71C11.9167 35.5433 11.7222 35.46 11.5 35.46C11.2778 35.46 11.1111 35.5433 11 35.71C10.8889 35.8767 10.8333 36.0711 10.8333 36.2933V38.2933C10.8333 38.5155 10.8889 38.6822 11 38.7933C11.1111 38.9044 11.2778 38.96 11.5 38.96Z" fill="url(#paint0_linear_25_68)"/>
<defs>
<linearGradient id="paint0_linear_25_68" x1="23.8333" y1="50.96" x2="23.8333" y2="0.959991" gradientUnits="userSpaceOnUse">
<stop stop-color="#7255E7"/>
<stop offset="1" stop-color="#E050C2"/>
</linearGradient>
</defs>
</svg>
