<svg width="42" height="42" viewBox="0 0 42 42" fill="none" xmlns="http://www.w3.org/2000/svg">
<g id="Creative">
<path id="Vector" d="M40 36.8333V5.16667C40 4.32681 39.6664 3.52136 39.0725 2.9275C38.4786 2.33363 37.6732 2 36.8333 2H5.16667C4.32681 2 3.52136 2.33363 2.9275 2.9275C2.33363 3.52136 2 4.32681 2 5.16667V36.8333C2 37.6732 2.33363 38.4786 2.9275 39.0725C3.52136 39.6664 4.32681 40 5.16667 40H36.8333C37.6732 40 38.4786 39.6664 39.0725 39.0725C39.6664 38.4786 40 37.6732 40 36.8333Z" stroke="black" stroke-width="4" stroke-linejoin="round"/>
<path id="Vector_2" d="M20.9998 15.0002L17.943 21.2385L10.9995 22.2455L16.0292 27.1623L14.827 34.0002L20.9998 30.71L27.1738 34.0002L25.981 27.1623L31.0012 22.2455L24.0968 21.2385L20.9998 15.0002Z" stroke="black" stroke-width="4" stroke-linejoin="round"/>
<path id="Vector_3" d="M15.0005 9.00043H27" stroke="black" stroke-width="4" stroke-linecap="round" stroke-linejoin="round"/>
</g>
</svg>
