<svg width="45" height="46" viewBox="0 0 45 46" fill="none" xmlns="http://www.w3.org/2000/svg">
<g id="Design">
<path id="Vector" d="M2.83828 42.6307L17.1093 28.3597M35.0803 22.0135L30.8085 34.8292C30.7403 35.0346 30.6236 35.2206 30.4682 35.3712C30.3128 35.5219 30.1234 35.6329 29.916 35.6948L3.72853 43.4783C3.49261 43.5484 3.24198 43.5524 3.00393 43.4899C2.76588 43.4275 2.54952 43.3009 2.37841 43.124C2.2073 42.9471 2.08798 42.7267 2.03345 42.4867C1.97891 42.2467 1.99125 41.9963 2.06912 41.7629L10.5725 16.2571C10.6335 16.074 10.7331 15.9061 10.8646 15.7649C10.9962 15.6237 11.1566 15.5124 11.335 15.4386L23.4151 10.4649C23.6607 10.3634 23.9308 10.337 24.1914 10.3889C24.452 10.4408 24.6914 10.5686 24.8794 10.7564L34.7552 20.6367C34.9319 20.8133 35.0559 21.0357 35.1133 21.2789C35.1708 21.5221 35.1593 21.7765 35.0803 22.0135Z" stroke="black" stroke-width="3" stroke-linecap="round" stroke-linejoin="round"/>
<path id="Vector_2" d="M35.3455 21.2242L41.6872 14.8803C42.528 14.0393 43.0003 12.8987 43.0003 11.7095C43.0003 10.5203 42.528 9.3797 41.6872 8.53866L36.9332 3.78016C36.5167 3.3635 36.0222 3.03298 35.478 2.80748C34.9337 2.58198 34.3504 2.46591 33.7612 2.46591C33.1721 2.46591 32.5888 2.58198 32.0445 2.80748C31.5003 3.03298 31.0058 3.3635 30.5893 3.78016L24.2476 10.1241M21.8661 23.6013C21.5537 23.289 21.1828 23.0412 20.7746 22.8723C20.3664 22.7033 19.929 22.6164 19.4872 22.6165C19.0454 22.6166 18.608 22.7037 18.1999 22.8729C17.7918 23.042 17.421 23.2899 17.1087 23.6024C16.7964 23.9148 16.5487 24.2857 16.3798 24.6939C16.2108 25.1021 16.1239 25.5395 16.124 25.9813C16.1241 26.4231 16.2112 26.8605 16.3804 27.2686C16.5495 27.6767 16.7974 28.0475 17.1099 28.3598C17.7409 28.9905 18.5966 29.3447 19.4888 29.3445C20.381 29.3443 21.2365 28.9896 21.8672 28.3586C22.498 27.7276 22.8522 26.8719 22.852 25.9797C22.8518 25.0875 22.4971 24.232 21.8661 23.6013Z" stroke="black" stroke-width="3" stroke-linecap="round" stroke-linejoin="round"/>
</g>
</svg>
