<svg width="50" height="48" viewBox="0 0 50 48" fill="none" xmlns="http://www.w3.org/2000/svg">
<path id="Idea" d="M8.59464 0.256226L6.08036 2.76694L9.82143 6.50622L12.3321 3.99551L8.59464 0.256226ZM41.4071 0.256226L37.6661 3.99551L40.1786 6.50622L43.9179 2.76872L41.4071 0.256226ZM25 1.37051C24.4107 1.37765 23.8143 1.41158 23.2143 1.4848C23.1964 1.4848 23.1786 1.48123 23.1607 1.4848C15.9179 2.31515 10.1536 8.16694 9.15179 15.3776C8.35179 21.1812 10.7446 26.4437 14.7321 29.833C16.3632 31.225 17.4665 33.1353 17.8571 35.2437V45.958H21.9286C22.55 47.0241 23.6839 47.7437 25 47.7437C26.3161 47.7437 27.45 47.0241 28.0714 45.958H32.1429V38.8151H32.3107V36.6937C32.3107 34.0759 33.6714 31.4366 35.8821 29.3848C38.8393 26.4241 41.0714 22.2187 41.0714 17.3884C41.0714 8.56694 33.8107 1.28837 25 1.37051ZM25 4.94194C31.9018 4.84551 37.5 10.4955 37.5 17.3884C37.5 21.1276 35.7679 24.4205 33.3696 26.8169L33.4268 26.8741C31.0435 29.0718 29.5024 32.0326 29.0696 35.2455H21.2589C20.8661 32.1848 19.5536 29.2223 17.0732 27.0973C13.9179 24.4187 12.0375 20.383 12.6661 15.8259C13.4464 10.2009 18.0107 5.67765 23.6036 5.05801C24.0653 4.99363 24.5304 4.95548 24.9964 4.94372L25 4.94194ZM0 17.3884V20.9598H5.35714V17.3884H0ZM44.6429 17.3884V20.9598H50V17.3884H44.6429ZM9.82143 31.8419L6.08214 35.5794L8.59464 38.0919L12.3304 34.3526L9.82143 31.8419ZM40.1786 31.8419L37.6679 34.3526L41.4054 38.0919L43.9179 35.5794L40.1786 31.8419ZM21.4286 38.8169H28.5714V42.3884H21.4286V38.8169Z" fill="black"/>
</svg>
