<svg width="41" height="42" viewBox="0 0 41 42" fill="none" xmlns="http://www.w3.org/2000/svg">
<path id="Strategy" d="M13.9115 0.497314L10.6155 1.83788L12.68 6.97852C10.0817 8.43648 7.93559 10.5826 6.47764 13.1809L1.34057 11.1128L0 14.4053L5.08523 16.4733C4.6478 17.9424 4.4221 19.4663 4.41494 20.9991C4.42195 22.5307 4.64766 24.0535 5.08523 25.5213L0 27.5911L1.34057 30.8871L6.48121 28.8227C7.94426 31.4171 10.0891 33.562 12.6836 35.025L10.6155 40.1621L13.908 41.5027L15.976 36.4174C17.406 36.8393 18.9306 37.0877 20.4982 37.0877C22.0298 37.0807 23.5526 36.855 25.0204 36.4174L27.0885 41.5009L30.3845 40.1603L28.32 35.0197C30.9183 33.5617 33.0644 31.4156 34.5224 28.8173L39.6594 30.8854L41 27.5911L35.9148 25.5249C36.3523 24.0571 36.578 22.5343 36.5851 21.0027C36.578 19.4711 36.3523 17.9483 35.9148 16.4805L40.9982 14.4106L39.6576 11.1164L34.517 13.1809C33.059 10.5826 30.913 8.43648 28.3146 6.97852L30.3827 1.84146L27.0885 0.500889L25.0222 5.58612C23.5556 5.14538 22.0331 4.91843 20.5018 4.91226C18.9702 4.91927 17.4474 5.14498 15.9796 5.58254L13.9062 0.497314H13.9115ZM20.5018 8.48711C27.4334 8.48711 33.0138 14.0675 33.0138 20.9991C33.0138 27.9307 27.4334 33.5111 20.5018 33.5111C13.5701 33.5111 7.9898 27.9307 7.9898 20.9991C7.9898 14.0675 13.5701 8.48711 20.5018 8.48711ZM20.5018 13.8494C16.5748 13.8494 13.3521 17.0721 13.3521 20.9991C13.3521 24.9261 16.5748 28.1488 20.5018 28.1488C24.4288 28.1488 27.6515 24.9261 27.6515 20.9991C27.6515 17.0721 24.4288 13.8494 20.5018 13.8494ZM20.5018 17.4242C22.4966 17.4242 24.0766 19.0043 24.0766 20.9991C24.0766 22.9939 22.4966 24.574 20.5018 24.574C18.507 24.574 16.9269 22.9939 16.9269 20.9991C16.9269 19.0043 18.507 17.4242 20.5018 17.4242Z" fill="black"/>
</svg>
